<svg width="43" height="43" viewBox="0 0 43 43" fill="none" xmlns="http://www.w3.org/2000/svg">
<path d="M24.1063 9.57485L29.1326 3.51892L27.9955 11.3064L27.8785 12.1073L28.6041 11.7486L35.659 8.26061L31.4527 14.9123L31.0201 15.5964L31.8289 15.5638L39.6925 15.2469L33.1444 19.6126L32.4709 20.0616L33.223 20.3608L40.5358 23.2697L32.778 24.5947L31.9802 24.731L32.5456 25.3102L38.0429 30.942L30.417 28.997L29.6327 28.797L29.9136 29.5561L32.645 36.937L26.4695 32.0584L25.8343 31.5566L25.7822 32.3644L25.2754 40.2181L21.618 33.2495L21.2419 32.5328L20.8657 33.2495L17.2083 40.2181L16.7016 32.3644L16.6494 31.5566L16.0143 32.0584L9.83873 36.937L12.5702 29.5561L12.8511 28.797L12.0668 28.997L4.44081 30.942L9.93818 25.3102L10.5036 24.731L9.7057 24.5947L1.94796 23.2697L9.2607 20.3608L10.0128 20.0616L9.33934 19.6126L2.7912 15.2469L10.6549 15.5638L11.4637 15.5964L11.031 14.9123L6.82472 8.26061L13.8796 11.7486L14.6052 12.1073L14.4883 11.3064L13.3511 3.51892L18.3774 9.57485L18.8944 10.1977L19.1133 9.41843L21.2419 1.84168L23.3705 9.41843L23.5894 10.1977L24.1063 9.57485Z" fill="#C5FE89" stroke="#666253" stroke-width="0.849635"/>
</svg>
